<svg data-v-fde0c5aa="" xmlns="http://www.w3.org/2000/svg" viewBox="0 0 300 300" class="font"><!----><defs data-v-fde0c5aa=""><!----></defs><rect data-v-fde0c5aa="" fill="transparent" x="0" y="0" width="300px" height="300px" class="logo-background-square"></rect><defs data-v-fde0c5aa=""><linearGradient data-v-fde0c5aa="" gradientTransform="rotate(25)" id="611915d7-e2f7-442b-b43e-9e7d3ff7fb62" x1="0%" y1="0%" x2="100%" y2="0%"><stop data-v-fde0c5aa="" offset="0%" stop-color="#0DABE9" stop-opacity="1"></stop><stop data-v-fde0c5aa="" offset="100%" stop-color="#430DE9" stop-opacity="1"></stop></linearGradient></defs><g data-v-fde0c5aa="" id="ebb02188-a4ae-4508-ae47-214f2867ad26" fill="url(#611915d7-e2f7-442b-b43e-9e7d3ff7fb62)" transform="matrix(3.3545773029327393,0,0,3.3545773029327393,35.30883316457204,121.7023050807076)"><path d="M4.66 1.40L4.66 1.40Q6.24 1.40 7.48 2.10L7.48 2.10L7.48 2.10Q8.71 2.80 9.39 4.04L9.39 4.04L9.39 4.04Q10.08 5.28 10.08 6.86L10.08 6.86L10.08 6.86Q10.08 8.44 9.39 9.69L9.39 9.69L9.39 9.69Q8.71 10.93 7.48 11.63L7.48 11.63L7.48 11.63Q6.24 12.33 4.66 12.33L4.66 12.33L2.13 12.33L2.13 12.33Q1.82 12.33 1.61 12.12L1.61 12.12L1.61 12.12Q1.40 11.91 1.40 11.61L1.40 11.61L1.40 2.13L1.40 2.13Q1.40 1.81 1.61 1.60L1.61 1.60L1.61 1.60Q1.82 1.40 2.13 1.40L2.13 1.40L4.66 1.40ZM4.66 11.05L4.66 11.05Q5.82 11.05 6.74 10.51L6.74 10.51L6.74 10.51Q7.66 9.98 8.17 9.02L8.17 9.02L8.17 9.02Q8.68 8.06 8.68 6.86L8.68 6.86L8.68 6.86Q8.68 5.66 8.17 4.70L8.17 4.70L8.17 4.70Q7.66 3.75 6.74 3.22L6.74 3.22L6.74 3.22Q5.82 2.69 4.66 2.69L4.66 2.69L2.86 2.69L2.86 11.05L4.66 11.05ZM19.10 8.39L19.10 8.39Q19.10 8.65 18.91 8.83L18.91 8.83L18.91 8.83Q18.73 9.00 18.45 9.00L18.45 9.00L13.13 9.00L13.13 9.00Q13.29 9.98 14.02 10.58L14.02 10.58L14.02 10.58Q14.76 11.19 15.82 11.19L15.82 11.19L15.82 11.19Q16.24 11.19 16.70 11.03L16.70 11.03L16.70 11.03Q17.15 10.88 17.44 10.65L17.44 10.65L17.44 10.65Q17.64 10.50 17.91 10.50L17.91 10.50L17.91 10.50Q18.17 10.50 18.33 10.64L18.33 10.64L18.33 10.64Q18.58 10.85 18.58 11.12L18.58 11.12L18.58 11.12Q18.58 11.37 18.35 11.54L18.35 11.54L18.35 11.54Q17.88 11.91 17.17 12.15L17.17 12.15L17.17 12.15Q16.46 12.39 15.82 12.39L15.82 12.39L15.82 12.39Q14.67 12.39 13.76 11.89L13.76 11.89L13.76 11.89Q12.85 11.40 12.34 10.51L12.34 10.51L12.34 10.51Q11.83 9.63 11.83 8.51L11.83 8.51L11.83 8.51Q11.83 7.39 12.31 6.50L12.31 6.50L12.31 6.50Q12.80 5.61 13.66 5.12L13.66 5.12L13.66 5.12Q14.52 4.62 15.61 4.62L15.61 4.62L15.61 4.62Q16.69 4.62 17.47 5.10L17.47 5.10L17.47 5.10Q18.26 5.57 18.68 6.43L18.68 6.43L18.68 6.43Q19.10 7.28 19.10 8.39L19.10 8.39ZM15.61 5.82L15.61 5.82Q14.59 5.82 13.95 6.38L13.95 6.38L13.95 6.38Q13.31 6.94 13.15 7.88L13.15 7.88L17.81 7.88L17.81 7.88Q17.68 6.94 17.11 6.38L17.11 6.38L17.11 6.38Q16.53 5.82 15.61 5.82L15.61 5.82ZM26.81 4.77L26.81 4.77Q26.99 4.86 27.09 5.00L27.09 5.00L27.09 5.00Q27.19 5.15 27.19 5.33L27.19 5.33L27.19 5.33Q27.19 5.46 27.12 5.60L27.12 5.60L24.15 11.86L24.15 11.86Q23.94 12.32 23.51 12.32L23.51 12.32L23.51 12.32Q23.27 12.32 23.11 12.21L23.11 12.21L23.11 12.21Q22.96 12.11 22.83 11.86L22.83 11.86L19.87 5.60L19.87 5.60Q19.81 5.49 19.81 5.35L19.81 5.35L19.81 5.35Q19.81 4.97 20.20 4.77L20.20 4.77L20.20 4.77Q20.33 4.70 20.50 4.70L20.50 4.70L20.50 4.70Q20.66 4.70 20.82 4.79L20.82 4.79L20.82 4.79Q20.97 4.89 21.06 5.05L21.06 5.05L23.49 10.30L25.90 5.05L25.90 5.05Q25.98 4.89 26.14 4.79L26.14 4.79L26.14 4.79Q26.31 4.70 26.49 4.70L26.49 4.70L26.49 4.70Q26.67 4.70 26.81 4.77L26.81 4.77ZM33.78 1.26L33.78 1.26Q35.39 1.26 36.66 1.97L36.66 1.97L36.66 1.97Q37.93 2.69 38.63 3.96L38.63 3.96L38.63 3.96Q39.34 5.24 39.34 6.86L39.34 6.86L39.34 6.86Q39.34 8.48 38.63 9.77L38.63 9.77L38.63 9.77Q37.93 11.05 36.67 11.76L36.67 11.76L36.67 11.76Q35.41 12.47 33.78 12.47L33.78 12.47L33.78 12.47Q32.16 12.47 30.89 11.76L30.89 11.76L30.89 11.76Q29.62 11.05 28.92 9.77L28.92 9.77L28.92 9.77Q28.22 8.48 28.22 6.86L28.22 6.86L28.22 6.86Q28.22 5.24 28.92 3.96L28.92 3.96L28.92 3.96Q29.62 2.69 30.89 1.97L30.89 1.97L30.89 1.97Q32.16 1.26 33.78 1.26L33.78 1.26ZM33.78 2.58L33.78 2.58Q32.58 2.58 31.63 3.14L31.63 3.14L31.63 3.14Q30.69 3.70 30.16 4.68L30.16 4.68L30.16 4.68Q29.62 5.66 29.62 6.86L29.62 6.86L29.62 6.86Q29.62 8.06 30.16 9.04L30.16 9.04L30.16 9.04Q30.69 10.02 31.64 10.59L31.64 10.59L31.64 10.59Q32.59 11.16 33.78 11.16L33.78 11.16L33.78 11.16Q34.97 11.16 35.92 10.59L35.92 10.59L35.92 10.59Q36.88 10.02 37.41 9.04L37.41 9.04L37.41 9.04Q37.94 8.06 37.94 6.86L37.94 6.86L37.94 6.86Q37.94 5.66 37.41 4.68L37.41 4.68L37.41 4.68Q36.88 3.70 35.93 3.14L35.93 3.14L35.93 3.14Q34.99 2.58 33.78 2.58L33.78 2.58ZM45.33 4.62L45.33 4.62Q46.41 4.62 47.30 5.13L47.30 5.13L47.30 5.13Q48.19 5.64 48.69 6.53L48.69 6.53L48.69 6.53Q49.20 7.42 49.20 8.51L49.20 8.51L49.20 8.51Q49.20 9.60 48.73 10.49L48.73 10.49L48.73 10.49Q48.26 11.38 47.44 11.89L47.44 11.89L47.44 11.89Q46.62 12.39 45.61 12.39L45.61 12.39L45.61 12.39Q44.80 12.39 44.10 12.05L44.10 12.05L44.10 12.05Q43.40 11.72 42.91 11.12L42.91 11.12L42.91 14.90L42.91 14.90Q42.91 15.22 42.71 15.41L42.71 15.41L42.71 15.41Q42.52 15.61 42.20 15.61L42.20 15.61L42.20 15.61Q41.89 15.61 41.69 15.41L41.69 15.41L41.69 15.41Q41.48 15.22 41.48 14.90L41.48 14.90L41.48 8.51L41.48 8.51Q41.48 7.42 41.99 6.53L41.99 6.53L41.99 6.53Q42.50 5.64 43.38 5.13L43.38 5.13L43.38 5.13Q44.25 4.62 45.33 4.62L45.33 4.62ZM45.33 11.13L45.33 11.13Q46.03 11.13 46.60 10.79L46.60 10.79L46.60 10.79Q47.17 10.44 47.50 9.85L47.50 9.85L47.50 9.85Q47.82 9.25 47.82 8.51L47.82 8.51L47.82 8.51Q47.82 7.77 47.50 7.17L47.50 7.17L47.50 7.17Q47.17 6.57 46.60 6.22L46.60 6.22L46.60 6.22Q46.03 5.88 45.33 5.88L45.33 5.88L45.33 5.88Q44.63 5.88 44.06 6.22L44.06 6.22L44.06 6.22Q43.50 6.57 43.18 7.17L43.18 7.17L43.18 7.17Q42.85 7.77 42.85 8.51L42.85 8.51L42.85 8.51Q42.85 9.25 43.18 9.85L43.18 9.85L43.18 9.85Q43.50 10.44 44.06 10.79L44.06 10.79L44.06 10.79Q44.63 11.13 45.33 11.13L45.33 11.13ZM54.01 4.62L54.01 4.62Q54.92 4.62 55.64 4.91L55.64 4.91L55.64 4.91Q56.36 5.21 56.78 5.73L56.78 5.73L56.78 5.73Q56.97 5.95 56.97 6.17L56.97 6.17L56.97 6.17Q56.97 6.41 56.73 6.61L56.73 6.61L56.73 6.61Q56.57 6.72 56.34 6.72L56.34 6.72L56.34 6.72Q55.97 6.72 55.68 6.45L55.68 6.45L55.68 6.45Q55.33 6.13 54.94 6.00L54.94 6.00L54.94 6.00Q54.54 5.87 53.98 5.87L53.98 5.87L53.98 5.87Q53.34 5.87 52.93 6.08L52.93 6.08L52.93 6.08Q52.51 6.30 52.51 6.69L52.51 6.69L52.51 6.69Q52.51 6.97 52.65 7.16L52.65 7.16L52.65 7.16Q52.79 7.35 53.19 7.51L53.19 7.51L53.19 7.51Q53.58 7.67 54.32 7.83L54.32 7.83L54.32 7.83Q55.85 8.13 56.48 8.68L56.48 8.68L56.48 8.68Q57.12 9.23 57.12 10.09L57.12 10.09L57.12 10.09Q57.12 10.74 56.77 11.26L56.77 11.26L56.77 11.26Q56.42 11.79 55.74 12.09L55.74 12.09L55.74 12.09Q55.06 12.39 54.11 12.39L54.11 12.39L54.11 12.39Q53.16 12.39 52.32 12.10L52.32 12.10L52.32 12.10Q51.48 11.80 51.00 11.33L51.00 11.33L51.00 11.33Q50.82 11.14 50.82 10.89L50.82 10.89L50.82 10.89Q50.82 10.56 51.10 10.35L51.10 10.35L51.10 10.35Q51.37 10.15 51.59 10.15L51.59 10.15L51.59 10.15Q51.87 10.15 52.12 10.40L52.12 10.40L52.12 10.40Q52.39 10.70 52.92 10.91L52.92 10.91L52.92 10.91Q53.45 11.13 54.05 11.13L54.05 11.13L54.05 11.13Q54.85 11.13 55.29 10.86L55.29 10.86L55.29 10.86Q55.73 10.60 55.73 10.15L55.73 10.15L55.73 10.15Q55.73 9.72 55.30 9.43L55.30 9.43L55.30 9.43Q54.87 9.14 53.83 8.95L53.83 8.95L53.83 8.95Q51.14 8.43 51.14 6.73L51.14 6.73L51.14 6.73Q51.14 6.05 51.55 5.57L51.55 5.57L51.55 5.57Q51.95 5.10 52.61 4.86L52.61 4.86L52.61 4.86Q53.27 4.62 54.01 4.62L54.01 4.62ZM66.36 1.40L66.36 1.40Q66.63 1.40 66.80 1.60L66.80 1.60L66.80 1.60Q66.98 1.79 66.98 2.07L66.98 2.07L66.98 2.07Q66.98 2.31 66.84 2.53L66.84 2.53L63.07 8.34L63.07 11.61L63.07 11.61Q63.07 11.91 62.86 12.12L62.86 12.12L62.86 12.12Q62.65 12.33 62.34 12.33L62.34 12.33L62.34 12.33Q62.05 12.33 61.84 12.12L61.84 12.12L61.84 12.12Q61.63 11.91 61.63 11.61L61.63 11.61L61.63 8.34L57.89 2.53L57.89 2.53Q57.74 2.30 57.74 2.09L57.74 2.09L57.74 2.09Q57.74 1.79 57.95 1.60L57.95 1.60L57.95 1.60Q58.17 1.40 58.46 1.40L58.46 1.40L58.46 1.40Q58.69 1.40 58.83 1.50L58.83 1.50L58.83 1.50Q58.97 1.60 59.11 1.81L59.11 1.81L62.38 7.00L65.72 1.75L65.72 1.75Q65.94 1.40 66.36 1.40L66.36 1.40Z"></path></g><!----><!----></svg>